<svg class="icon" viewBox="0 0 1024 1024" xmlns="http://www.w3.org/2000/svg" width="200" height="200"><path d="M581.967 840.239c-.256-2.352-.336-4.608-.48-6.88a226.48 226.48 0 0 1-3.008-58.432 44.768 44.768 0 0 1-6.48-2.56c.08 23.728 3.504 50.368 10.864 80.064a346.896 346.896 0 0 1-.896-12.192z"/><path d="M805.967 145.712c-12.56-12.56-27.472-18.832-44.624-18.832h-63.472V79.296c0-21.808-7.744-40.48-23.28-56C659.071 7.776 640.4 0 618.591 0h-31.744c-21.792 0-40.48 7.76-56 23.296-15.536 15.52-23.28 34.192-23.28 56v47.584H317.232V79.296c0-21.808-7.76-40.48-23.296-56C278.416 7.776 259.744 0 237.936 0h-31.728c-21.824 0-40.496 7.76-56 23.296-15.536 15.52-23.312 34.192-23.312 56v47.584h-63.44c-17.168.016-32.032 6.304-44.608 18.832C6.272 158.272 0 173.152 0 190.336v634.399c.016 17.2 6.32 32.048 18.848 44.64 12.544 12.56 27.424 18.848 44.608 18.848h518.303a266.56 266.56 0 0 1-1.744-12.224 35.2 35.2 0 0 1 3.168-19.104c-.48-5.552-.912-11.104-1.2-16.656-.272-2.528-.368-4.944-.512-7.36-.512-2.72-1.168-5.376-1.568-8.128h-151.6V681.999h158.592v.208a52.8 52.8 0 0 1 3.984-.4c2.128-2.624 4.48-5.072 7.136-7.232a97.276 97.276 0 0 1 7.072-7.92c3.312-4.384 6.56-8.32 10.528-11.968.96-1.504 2.096-2.944 3.28-4.384h-.256V491.695h142.752l.128 86.304c19.536-2.688 38.592 1.856 58.496 2 1.632.016 3.2.336 4.784.512V190.336c-.032-17.184-6.32-32.048-18.816-44.624zm-615.631-66.4c0-4.304 1.568-8.016 4.704-11.168a15.216 15.216 0 0 1 11.168-4.72h31.712a15.2 15.2 0 0 1 11.168 4.72 15.2 15.2 0 0 1 4.72 11.152v142.752c0 4.304-1.568 8-4.72 11.168a15.248 15.248 0 0 1-11.168 4.72h-31.712a15.264 15.264 0 0 1-11.168-4.72 15.312 15.312 0 0 1-4.704-11.168V79.296zM206.24 824.75H63.488V681.999H206.24v142.752zm0-174.432H63.488V491.68H206.24v158.624zm0-190.352H63.488V317.216H206.24v142.751zm190.304 364.784H237.92V681.999h158.624v142.752zm0-174.432H237.92V491.68h158.624v158.624zm0-190.352H237.92V317.216h158.624v142.751zM586.879 650.32H428.287V491.68H586.88v158.624zm0-190.352H428.287V317.216H586.88v142.751zm31.712-222.031h-31.744a15.296 15.296 0 0 1-11.152-4.72 15.376 15.376 0 0 1-4.72-11.168V79.296c0-4.288 1.6-8 4.72-11.152a15.248 15.248 0 0 1 11.152-4.72h31.744c4.288 0 8 1.568 11.12 4.72 3.168 3.152 4.752 6.88 4.752 11.152v142.752c0 4.304-1.6 8-4.752 11.168a15.184 15.184 0 0 1-11.12 4.72zm142.784 222.031H618.623V317.216h142.752v142.751z"/><path d="M801.199 642.08h-63.664v159.119H896.72v-63.68h-95.52v-95.44zm148.208-52.753a253.024 253.024 0 0 0-180.032-74.592 252.992 252.992 0 0 0-180.048 74.592A252.736 252.736 0 0 0 514.72 769.36c0 68.08 26.432 132.016 74.608 180.032a252.752 252.752 0 0 0 180.048 74.608c68.064 0 132-26.432 180.032-74.608a252.656 252.656 0 0 0 74.592-180.032c0-68-26.432-131.936-74.592-180.032zM769.375 960.383c-105.312 0-190.976-85.664-190.976-191.024 0-105.312 85.664-190.976 190.976-190.976 105.376 0 190.96 85.664 190.96 190.976 0 105.376-85.6 191.024-190.96 191.024z"/></svg>