<svg class="icon" viewBox="0 0 1024 1024" xmlns="http://www.w3.org/2000/svg" width="200" height="200"><path d="M209.709 890.002c0 30.011-22.061 54.345-52.078 54.345h-56.026c-30.008 0-52.072-24.333-52.072-54.345v-49.798h160.175v49.798zM49.533 351.767h160.175v434.109H49.533V351.767zM209.709 295.177l-160.175 1.702v-56.034c0-30.014 22.062-54.338 52.072-54.338h56.026c30.01 0 52.078 24.324 52.078 54.338v54.332zM483.633 890.002c0 30.011-24.321 54.345-54.338 54.345H317.236c-30.004 0-49.8-24.333-49.8-54.345V840.77h216.197v49.232zM483.633 784.173l-216.196-.567V241.409h216.196zM483.633 187.644l-216.196-1.697V129.35c0-30.004 19.795-54.34 49.8-54.34h112.059c30.016 0 54.337 24.336 54.337 54.34v58.294zM809.63 891.698c0 30.016-24.317 54.344-54.331 54.344H591.173c-30.009 0-54.333-24.328-54.333-54.344v-650.29c0-30.013 24.328-54.343 54.333-54.343h164.126c30.014 0 54.33 24.33 54.33 54.344v650.289zM972.63 891.698c0 30.016-20.925 54.344-50.942 54.344h-8.483c-30.005 0-48.681-22.055-48.681-52.073h.006V786.441l108.1-2.265v107.522zM972.63 727.008l-108.106 2.261V569.664l108.107-.559zM972.63 511.938H864.525V404.971c0-30.003 18.675-56.598 48.681-56.598h8.483c30.006 0 50.943 24.327 50.943 54.326v109.24z"/></svg>