<svg class="icon" viewBox="0 0 1024 1024" xmlns="http://www.w3.org/2000/svg" width="200" height="200"><path d="M123.639 245.001a97.09 97.09 0 1 0 0-194.18 97.09 97.09 0 0 0 0 194.18zM390.637 75.093a72.818 72.818 0 1 0 0 145.636h533.997a72.818 72.818 0 0 0 0-145.636H390.637zm-72.818 412.634a72.818 72.818 0 0 1 72.818-72.817h533.997a72.818 72.818 0 0 1 0 145.635H390.637a72.818 72.818 0 0 1-72.818-72.818zm0 339.817a72.818 72.818 0 0 1 72.818-72.818h533.997a72.818 72.818 0 0 1 0 145.635H390.637a72.818 72.818 0 0 1-72.818-72.817zm-97.09-339.817a97.09 97.09 0 1 1-194.18 0 97.09 97.09 0 0 1 194.18 0zm-97.09 436.907a97.09 97.09 0 1 0 0-194.18 97.09 97.09 0 0 0 0 194.18z"/></svg><svg class="icon" viewBox="0 0 1024 1024" xmlns="http://www.w3.org/2000/svg" width="200" height="200"><path d="M123.639 245.001a97.09 97.09 0 1 0 0-194.18 97.09 97.09 0 0 0 0 194.18zM390.637 75.093a72.818 72.818 0 1 0 0 145.636h533.997a72.818 72.818 0 0 0 0-145.636H390.637zm-72.818 412.634a72.818 72.818 0 0 1 72.818-72.817h533.997a72.818 72.818 0 0 1 0 145.635H390.637a72.818 72.818 0 0 1-72.818-72.818zm0 339.817a72.818 72.818 0 0 1 72.818-72.818h533.997a72.818 72.818 0 0 1 0 145.635H390.637a72.818 72.818 0 0 1-72.818-72.817zm-97.09-339.817a97.09 97.09 0 1 1-194.18 0 97.09 97.09 0 0 1 194.18 0zm-97.09 436.907a97.09 97.09 0 1 0 0-194.18 97.09 97.09 0 0 0 0 194.18z"/></svg>
