<svg class="icon" viewBox="0 0 1024 1024" xmlns="http://www.w3.org/2000/svg" width="128" height="128"><path d="M796.805 45.966h-569.61c-99.925 0-181.229 79.944-181.229 178.22v381.467c0 98.256 81.304 178.2 181.23 178.2h15.378v194.18l283.854-194.18h270.377c99.925 0 181.229-79.944 181.229-178.219V224.185c0-98.275-81.304-178.219-181.23-178.219zM900.36 605.634c0 55.458-46.467 100.547-103.556 100.547H502.427L320.247 830.67V706.18h-93.052c-57.089 0-103.556-45.088-103.556-100.546V224.185c0-55.438 46.467-100.546 103.556-100.546h569.59c57.109 0 103.576 45.108 103.576 100.546v381.449z"/><path d="M453.746 414.91a58.254 58.254 0 1 0 116.508 0 58.254 58.254 0 1 0-116.508 0zM220.729 414.91a58.254 58.254 0 1 0 116.508 0 58.254 58.254 0 1 0-116.508 0zM686.763 414.91a58.254 58.254 0 1 0 116.508 0 58.254 58.254 0 1 0-116.508 0z"/></svg><svg class="icon" viewBox="0 0 1024 1024" xmlns="http://www.w3.org/2000/svg" width="200" height="200"><path d="M796.805 45.966h-569.61c-99.925 0-181.229 79.944-181.229 178.22v381.467c0 98.256 81.304 178.2 181.23 178.2h15.378v194.18l283.854-194.18h270.377c99.925 0 181.229-79.944 181.229-178.219V224.185c0-98.275-81.304-178.219-181.23-178.219zM900.36 605.634c0 55.458-46.467 100.547-103.556 100.547H502.427L320.247 830.67V706.18h-93.052c-57.089 0-103.556-45.088-103.556-100.546V224.185c0-55.438 46.467-100.546 103.556-100.546h569.59c57.109 0 103.576 45.108 103.576 100.546v381.449z"/><path d="M453.746 414.91a58.254 58.254 0 1 0 116.508 0 58.254 58.254 0 1 0-116.508 0zM220.729 414.91a58.254 58.254 0 1 0 116.508 0 58.254 58.254 0 1 0-116.508 0zM686.763 414.91a58.254 58.254 0 1 0 116.508 0 58.254 58.254 0 1 0-116.508 0z"/></svg>
