<svg class="icon" viewBox="0 0 1024 1024" xmlns="http://www.w3.org/2000/svg" width="200" height="200"><path d="M380.928 930.702l47.332-54.613 7.281-7.282c43.691-40.05 112.868-36.409 152.918 7.282l47.331 54.613c25.486-7.282 50.973-18.204 72.818-29.127l-3.64-72.818v-10.922c3.64-61.895 54.612-105.586 116.508-101.945l72.817 3.64c10.923-21.845 21.846-47.33 29.127-72.817l-54.613-47.332-7.282-7.281c-40.05-43.691-36.409-112.868 7.282-152.918l54.613-47.331c-7.281-25.487-18.204-50.973-29.127-72.818l-72.817 3.64h-10.923c-61.895-3.64-105.586-54.613-101.945-116.508l3.64-72.817c-21.844-10.923-47.33-21.846-72.817-29.128L592.1 158.834l-7.282 7.282c-43.69 40.05-112.868 36.408-152.918-7.282L384.57 104.22c-18.205 7.282-43.69 18.205-72.818 32.768l3.641 72.818v10.923c-3.64 61.895-54.613 105.586-116.508 101.945l-72.818-3.641c-10.923 21.845-21.846 47.331-29.127 72.818l54.613 47.331 7.282 7.282c40.05 43.69 36.409 112.868-7.282 152.917l-54.613 47.332c7.281 25.486 18.204 50.972 29.127 72.818l72.818-3.641h10.922c61.895 3.64 105.586 54.613 101.945 116.508l-3.64 72.818c25.485 7.282 47.33 14.564 72.817 25.486zM235.292 916.14l3.641-94.663c0-21.846-14.563-36.41-32.768-40.05h-3.64l-94.664 3.64c-14.563 0-25.486-7.281-32.768-18.204-25.486-40.05-43.69-83.74-54.613-131.072-3.64-14.563 0-25.486 10.923-36.409l72.817-65.536c14.564-14.563 14.564-36.409 3.641-50.972l-3.64-3.641-72.818-65.536c-10.923-7.282-14.564-21.845-10.923-36.409 10.923-47.331 29.127-91.022 54.613-131.072 7.282-10.923 18.205-18.204 32.768-18.204l94.663 3.64c21.846 0 36.41-14.563 40.05-32.767v-3.641l-3.64-94.663c0-14.564 7.281-29.128 21.845-32.768 54.613-29.128 98.304-43.691 131.072-54.614 14.563-3.64 25.486 0 36.409 10.923l65.536 72.818c14.563 14.563 36.408 14.563 50.972 3.64l3.64-3.64 65.537-72.818c7.282-10.923 21.845-14.564 36.409-10.923 47.331 10.923 91.022 29.127 131.072 54.614 10.922 7.281 18.204 18.204 18.204 32.768l-3.64 94.663c0 21.845 14.563 36.409 32.767 40.05h3.641l94.663-3.641c14.564 0 25.487 7.281 32.768 18.204 25.487 40.05 43.691 83.74 54.614 131.072 3.64 14.564 0 25.486-10.923 36.409l-72.818 65.536c-14.563 14.563-14.563 36.409-3.64 50.972l3.64 3.641 72.818 65.536c10.923 7.282 14.564 21.846 10.923 36.41-10.923 47.33-29.127 91.021-54.614 131.071-7.281 10.923-18.204 18.205-32.768 18.205l-94.663-3.641c-21.845 0-36.409 14.563-40.05 32.768v3.64l3.641 94.664c0 14.563-7.281 25.486-18.204 32.768-40.05 25.486-83.74 43.69-131.072 54.613-14.564 3.64-25.486 0-36.409-10.923l-65.536-72.817c-14.564-14.564-36.409-14.564-50.972-3.641l-3.641 3.64-65.536 72.818c-7.282 10.923-21.846 14.564-36.41 10.923-47.33-10.923-91.021-29.127-131.071-54.613-14.564-3.641-21.846-18.205-21.846-32.768zM512 730.453c-120.15 0-218.453-98.304-218.453-218.453S391.85 293.547 512 293.547 730.453 391.85 730.453 512 632.15 730.453 512 730.453zm0-72.817c80.1 0 145.636-65.536 145.636-145.636S592.1 366.364 512 366.364 366.364 431.9 366.364 512 431.9 657.636 512 657.636z"/></svg>